{"title":"Lafanga (2015) Pak Punjabi 720p WEB HD - AVC- IcTv Lottery Exclu","uid":11846293,"size":1892780152,"categoryP":"video","categoryS":"other","magnet":"?xt=urn:btih:eb815f024b568720ae0c0ffa89b6c8fde52e6388&amp;dn=Lafanga+%282015%29+Pak+Punjabi+720p+WEB+HD+-+AVC-+IcTv+Lottery+Exclu&amp;tr=udp%3A%2F%2Ftracker.openbittorrent.com%3A80&amp;tr=udp%3A%2F%2Fopen.demonii.com%3A1337&amp;tr=udp%3A%2F%2Ftracker.coppersurfer.tk%3A6969&amp;tr=udp%3A%2F%2Fexodus.desync.com%3A6969","seeders":1,"leechers":6,"uploader":"SS132203","files":2,"time":1429953380,"description":"Lafanga (2015) Pak Punjabi 720p WEB HD - AVC- IcTv Lottery Exclusive -={SPARROW}=-\n &lt;a href=&quot;\nhttp://imgsparrow.co/image/Nq&quot; rel=&quot;nofollow&quot; target=&quot;_NEW&quot;&gt;\nhttp://imgsparrow.co/image/Nq&lt;/a&gt;\n &lt;a href=&quot;\nhttp://imgsparrow.co/image/9b&quot; rel=&quot;nofollow&quot; target=&quot;_NEW&quot;&gt;\nhttp://imgsparrow.co/image/9b&lt;/a&gt;\n\nFormat                                   : MPEG-4\nFormat profile                           : Base Media / Version 2\nCodec ID                                 : mp42\nFile size                                : 1.76 GiB\nDuration                                 : 1h 55mn\nOverall bit rate mode                    : Variable\nOverall bit rate                         : 2 179 Kbps\n\nVideo\nID                                       : 1\nFormat                                   : AVC\nFormat/Info                              : Advanced Video Codec\nFormat profile                           : &lt;a class=&quot;__cf_email__&quot; href=&quot;/cdn-cgi/l/email-protection&quot; data-cfemail=&quot;0941606e6149453a2738&quot;&gt;[email&amp;#160;protected]&lt;/a&gt;&lt;script cf-hash='f9e31' type=&quot;text/javascript&quot;&gt;\n/* &lt;![CDATA[ */!function(){try{var t=&quot;currentScript&quot;in document?document.currentScript:function(){for(var t=document.getElementsByTagName(&quot;script&quot;),e=t.length;e--;)if(t[e].getAttribute(&quot;cf-hash&quot;))return t[e]}();if(t&amp;&amp;t.previousSibling){var e,r,n,i,c=t.previousSibling,a=c.getAttribute(&quot;data-cfemail&quot;);if(a){for(e=&quot;&quot;,r=parseInt(a.substr(0,2),16),n=2;a.length-n;n+=2)i=parseInt(a.substr(n,2),16)^r,e+=String.fromCharCode(i);e=document.createTextNode(e),c.parentNode.replaceChild(e,c)}}}catch(u){}}();/* ]]&gt; */&lt;/script&gt;\nFormat settings, CABAC                   : Yes\nFormat settings, ReFrames                : 1 frame\nCodec ID                                 : avc1\nCodec ID/Info                            : Advanced Video Coding\nDuration                                 : 1h 55mn\nBit rate                                 : 1 985 Kbps\nMaximum bit rate                         : 7 667 Kbps\nWidth                                    : 1 280 pixels\nHeight                                   : 720 pixels\nDisplay aspect ratio                     : 16:9\nFrame rate mode                          : Constant\nFrame rate                               : 25.000 fps\nColor space                              : YUV\nChroma subsampling                       : 4:2:0\nBit depth                                : 8 bits\nScan type                                : Progressive\nBits/(Pixel*Frame)                       : 0.086\nStream size                              : 1.61 GiB (91%)\n\nAudio\nID                                       : 2\nFormat                                   : AAC\nFormat/Info                              : Advanced Audio Codec\nFormat profile                           : LC\nCodec ID                                 : 40\nDuration                                 : 1h 55mn\nBit rate mode                            : Variable\nBit rate                                 : 192 Kbps\nMaximum bit rate                         : 202 Kbps\nChannel(s)                               : 2 channels\nChannel positions                        : Front: L R\nSampling rate                            : 44.1 KHz\nCompression mode                         : Lossy\nStream size                              : 159 MiB (9%)\n &lt;a href=&quot;\nhttp://imgsparrow.co/image/9h&quot; rel=&quot;nofollow&quot; target=&quot;_NEW&quot;&gt;\nhttp://imgsparrow.co/image/9h&lt;/a&gt;\n &lt;a href=&quot;\nhttp://imgsparrow.co/image/Nz&quot; rel=&quot;nofollow&quot; target=&quot;_NEW&quot;&gt;\nhttp://imgsparrow.co/image/Nz&lt;/a&gt; &lt;a href=&quot;\nhttp://imgsparrow.co/image/N7&quot; rel=&quot;nofollow&quot; target=&quot;_NEW&quot;&gt;\nhttp://imgsparrow.co/image/N7&lt;/a&gt; &lt;a href=&quot;\nhttp://imgsparrow.co/image/Nk&quot; rel=&quot;nofollow&quot; target=&quot;_NEW&quot;&gt;\nhttp://imgsparrow.co/image/Nk&lt;/a&gt; &lt;a href=&quot;\nhttp://imgsparrow.co/image/Nn&quot; rel=&quot;nofollow&quot; target=&quot;_NEW&quot;&gt;\nhttp://imgsparrow.co/image/Nn&lt;/a&gt; &lt;a href=&quot;\nhttp://imgsparrow.co/image/Ny&quot; rel=&quot;nofollow&quot; target=&quot;_NEW&quot;&gt;\nhttp://imgsparrow.co/image/Ny&lt;/a&gt;\n\nAll Credit Goes To Intellect Clever &amp; IcTv\n &lt;a href=&quot;\nhttp://imgsparrow.co/image/N2&quot; rel=&quot;nofollow&quot; target=&quot;_NEW&quot;&gt;\nhttp://imgsparrow.co/image/N2&lt;/a&gt;","torrent":{"xt":"urn:btih:eb815f024b568720ae0c0ffa89b6c8fde52e6388","amp;dn":"Lafanga+%282015%29+Pak+Punjabi+720p+WEB+HD+-+AVC-+IcTv+Lottery+Exclu","amp;tr":["udp%3A%2F%2Ftracker.openbittorrent.com%3A80","udp%3A%2F%2Fopen.demonii.com%3A1337","udp%3A%2F%2Ftracker.coppersurfer.tk%3A6969","udp%3A%2F%2Fexodus.desync.com%3A6969"],"infoHash":"eb815f024b568720ae0c0ffa89b6c8fde52e6388","infoHashBuffer":{"type":"Buffer","data":[235,129,95,2,75,86,135,32,174,12,15,250,137,182,200,253,229,46,99,136]},"announce":[],"urlList":[]}}